<svg width="194" height="56" viewBox="0 0 194 56" fill="none" xmlns="http://www.w3.org/2000/svg">
<path opacity="0.7" d="M11.1883 35.581L8.11179 54.0415L11.1869 44.6453C11.2473 44.4607 11.3601 44.2978 11.5116 44.1763L14.2536 41.9767L16.1485 40.0817C16.2716 39.9587 16.4246 39.8698 16.5925 39.8241L22.8099 38.1284C23.4142 37.9636 24.0195 38.3886 24.0698 39.013L25.3581 55.027L33.3712 8.00252C33.379 7.95696 33.3902 7.91206 33.4048 7.86822C33.5522 7.42623 34.0107 7.16806 34.465 7.27131L34.6747 7.31898C35.0098 7.39513 35.3605 7.29392 35.6035 7.05095L35.7805 6.87392C36.0384 6.61604 36.4162 6.519 36.7664 6.62068L37.6802 6.88598C38.0499 6.99332 38.429 6.74827 38.4829 6.36709C38.5237 6.07857 38.362 5.79952 38.0915 5.6913L32.9812 3.64719C32.3244 3.38444 31.6098 3.8682 31.6098 4.57567V5.04133C31.6098 5.13425 31.5969 5.22671 31.5714 5.31605L24.7999 29.0161C24.7161 29.3093 24.5032 29.5483 24.2216 29.6651L11.7915 34.8217C11.473 34.9539 11.245 35.2408 11.1883 35.581Z" fill="#ED462C"/>
<path fill-rule="evenodd" clip-rule="evenodd" d="M31.1941 1.69405C30.9211 1.5733 30.6477 1.86233 30.7835 2.12818C31.0194 2.59015 31.0642 3.12634 30.9084 3.62109L23.8025 26.1774C23.4769 27.2107 22.7029 28.0422 21.6955 28.4407L9.62944 33.2141L6.87499 53.6138C6.83874 53.8823 7.04753 54.1212 7.31847 54.1212C7.51142 54.1212 7.68264 53.9975 7.74329 53.8144L10.7195 44.8261C10.9234 44.2104 11.29 43.6613 11.7805 43.237L16.2255 39.3913C17.2049 38.544 18.5641 38.2887 19.7841 38.7229L20.7107 39.0527C22.0484 39.5289 22.9807 40.7476 23.0901 42.1634L23.9692 53.5363C23.9947 53.8664 24.27 54.1212 24.601 54.1212C24.9108 54.1212 25.1751 53.8973 25.2261 53.5918L32.8449 7.94576C33.0196 6.89923 34.1315 6.29842 35.1009 6.721L35.451 6.42617C36.0216 5.94567 36.7892 5.76929 37.5069 5.93675C37.8542 6.01778 38.2032 5.81655 38.3073 5.49557C38.4129 5.16998 38.2552 4.81727 37.9422 4.67881L31.1941 1.69405ZM5.53334 38.3039L3.84089 40.1129C3.75227 40.2054 3.67304 40.3064 3.60436 40.4145L2.76334 41.7384C2.6527 41.9125 2.6292 42.1282 2.69976 42.3221C2.8981 42.8673 3.65066 42.9146 3.91576 42.3986L5.53334 38.3039ZM7.40363 37.2954L5.392 43.1571C4.46505 44.9613 1.83362 44.7957 1.1401 42.8896C0.893407 42.2116 0.975552 41.4574 1.36244 40.8484L2.20346 39.5245C2.33099 39.3238 2.47813 39.1362 2.64272 38.9645L8.27303 32.0471C8.35563 31.9609 8.45585 31.8936 8.56685 31.8497L21.085 26.8974C21.6274 26.6828 22.0442 26.2351 22.2195 25.6787L29.3254 3.1224C29.3504 3.04305 29.3432 2.95706 29.3053 2.88296C28.4589 1.22542 30.1633 -0.57663 31.8654 0.176212L38.6136 3.16097C39.7046 3.64353 40.2541 4.87283 39.8861 6.00759C39.51 7.16708 38.2981 7.82563 37.1298 7.55301C36.9131 7.50245 36.6833 7.55816 36.52 7.69568L36.1549 8.00319C35.6866 8.39756 35.0376 8.49518 34.4753 8.2588L26.8632 53.8651C26.6786 54.9707 25.7219 55.7809 24.601 55.7809C23.403 55.7809 22.4068 54.8587 22.3144 53.6642L21.4354 42.2913C21.3764 41.5289 20.8744 40.8727 20.1541 40.6163L19.2276 40.2865C18.5707 40.0527 17.8388 40.1902 17.3114 40.6464L12.8664 44.4921C12.6023 44.7206 12.4049 45.0163 12.2951 45.3478L9.31884 54.3361C9.03325 55.1986 8.22701 55.7809 7.31847 55.7809C6.04266 55.7809 5.05952 54.6561 5.23023 53.3918L7.40363 37.2954Z" fill="#10131E"/>
<path d="M63.885 56.0002C60.9074 56.0002 58.4023 55.3406 56.3695 54.0214C54.3367 52.6736 52.8336 50.8812 51.8602 48.6443C50.8867 46.3788 50.4 43.8408 50.4 41.0304C50.4 38.1626 50.944 35.5959 52.0319 33.3304C53.1485 31.0648 54.8807 29.2724 57.2284 27.9533C59.5761 26.6341 62.5394 25.9745 66.1182 25.9745C70.7564 25.9745 74.2207 26.9209 76.5111 28.8136C78.8016 30.6777 80.047 33.1296 80.2474 36.1695H72.6889C72.5172 34.8503 71.873 33.8035 70.7564 33.0292C69.6398 32.2263 68.108 31.8248 66.1612 31.8248C63.5558 31.8248 61.5946 32.5704 60.2776 34.0616C58.9606 35.5529 58.3021 37.8758 58.3021 41.0304C58.3021 44.0989 58.9033 46.3931 60.1058 47.913C61.3083 49.4043 63.1693 50.1499 65.6888 50.1499C68.0937 50.1499 69.8545 49.6481 70.9711 48.6443C72.0877 47.6119 72.7748 46.1924 73.0325 44.3857H63.7991V39.6108H80.2045V55.3119H73.8914V50.0639C72.4313 54.0214 69.0958 56.0002 63.885 56.0002Z" fill="#10131E"/>
<path d="M92.1881 55.3119H84.8014V33.8035H92.1881V55.3119ZM92.3169 31.1795H84.6725V26.7058H92.3169V31.1795Z" fill="#10131E"/>
<path d="M111.577 33.4594V40.6432H108.957C107.153 40.6432 105.85 41.1164 105.049 42.0628C104.276 43.0091 103.889 44.5577 103.889 46.7086V55.3119H96.5025V33.8035H103.674V38.2343C104.104 36.6283 104.805 35.4382 105.779 34.6639C106.752 33.8609 108.084 33.4594 109.773 33.4594H111.577Z" fill="#10131E"/>
<path d="M120.52 55.8711C118.373 55.8711 116.641 55.3119 115.324 54.1935C114.035 53.0464 113.391 51.5265 113.391 49.6337C113.391 47.7697 113.906 46.3071 114.937 45.246C115.996 44.1562 117.929 43.3819 120.735 42.9231L125.588 42.0628C126.561 41.8907 127.22 41.6613 127.563 41.3745C127.907 41.0877 128.078 40.6576 128.078 40.084C128.078 39.3957 127.835 38.8795 127.348 38.5354C126.862 38.1913 126.031 38.0192 124.858 38.0192C122.338 38.0192 121.05 38.9942 120.992 40.9443H113.82C113.906 39.4244 114.379 38.0765 115.238 36.9008C116.125 35.6963 117.385 34.7643 119.017 34.1047C120.649 33.4451 122.567 33.1153 124.772 33.1153C128.121 33.1153 130.641 33.7749 132.33 35.0941C134.048 36.4132 134.907 38.3203 134.907 40.8153V49.3756C134.907 51.5551 135.036 53.5339 135.293 55.3119H128.937C128.708 53.9928 128.594 52.5015 128.594 50.8382C128.05 52.4441 127.091 53.6916 125.716 54.5806C124.371 55.441 122.639 55.8711 120.52 55.8711ZM123.312 51.0533C124.743 51.0533 125.888 50.5514 126.747 49.5477C127.635 48.544 128.078 47.0957 128.078 45.203V44.3857C127.62 44.7298 127.148 45.0022 126.661 45.203C126.203 45.3751 125.559 45.5615 124.729 45.7622L123.483 46.0633C122.453 46.3214 121.722 46.6656 121.293 47.0957C120.864 47.4972 120.649 48.0564 120.649 48.7734C120.649 49.4903 120.892 50.0495 121.379 50.451C121.894 50.8525 122.538 51.0533 123.312 51.0533Z" fill="#10131E"/>
<path d="M169.696 30.5343H162.482V33.8035H168.623V39.3527H163.641V55.3119H156.254V39.3527H148.524V55.3119H141.137V39.3527H137.229V35.9114L141.137 33.7605V32.341C141.137 30.0754 141.753 28.3261 142.984 27.0929C144.215 25.8311 146.133 25.2002 148.739 25.2002H153.42V30.5343H147.408V33.8035H156.254V32.6851C156.254 27.6952 158.774 25.2002 163.813 25.2002H169.696V30.5343Z" fill="#10131E"/>
<path d="M181.819 51.0533C182.879 51.0533 183.752 50.8525 184.439 50.451C185.126 50.0495 185.627 49.5047 185.942 48.8164H193.114C192.685 50.9099 191.568 52.6306 189.764 53.9784C187.961 55.3263 185.255 56.0002 181.648 56.0002C177.553 56.0002 174.547 54.9104 172.629 52.7309C170.739 50.5514 169.794 47.8127 169.794 44.5147C169.794 42.3639 170.224 40.4281 171.083 38.7075C171.942 36.9868 173.259 35.6246 175.034 34.6209C176.809 33.6171 179.014 33.1153 181.648 33.1153C185.713 33.1153 188.648 34.205 190.451 36.3846C192.284 38.5354 193.2 41.2885 193.2 44.6438C193.2 45.3607 193.157 45.963 193.071 46.4505H176.966C177.167 48.1138 177.668 49.3039 178.47 50.0209C179.271 50.7091 180.388 51.0533 181.819 51.0533ZM181.733 37.9762C180.359 37.9762 179.286 38.306 178.512 38.9656C177.768 39.5965 177.281 40.6576 177.052 42.1488H186.2C186.057 40.7723 185.627 39.7399 184.911 39.0516C184.196 38.3346 183.136 37.9762 181.733 37.9762Z" fill="#10131E"/>
</svg>